<?xml version="1.0" encoding="UTF-8"?>
<svg width="32" height="32" viewBox="0 0 32 32" fill="none" xmlns="http://www.w3.org/2000/svg">
  <!-- Background circle with gradient -->
  <circle cx="16" cy="16" r="16" fill="url(#gradient)"/>
  
  <!-- "O" letter -->
  <path d="M16 6C11.0294 6 7 10.0294 7 15C7 19.9706 11.0294 24 16 24C20.9706 24 25 19.9706 25 15C25 10.0294 20.9706 6 16 6ZM16 20C13.2386 20 11 17.7614 11 15C11 12.2386 13.2386 10 16 10C18.7614 10 21 12.2386 21 15C21 17.7614 18.7614 20 16 20Z" fill="white"/>
  
  <!-- Gradient definition -->
  <defs>
    <linearGradient id="gradient" x1="0" y1="0" x2="32" y2="32" gradientUnits="userSpaceOnUse">
      <stop offset="0%" style="stop-color:#0a192f"/>
      <stop offset="100%" style="stop-color:#64ffda"/>
    </linearGradient>
  </defs>
</svg>
